<?xml version="1.0" encoding="utf-8"?>
<!-- Generator: Adobe Illustrator 23.0.6, SVG Export Plug-In . SVG Version: 6.00 Build 0)  -->
<svg version="1.1" id="Layer_1" xmlns="http://www.w3.org/2000/svg" xmlns:xlink="http://www.w3.org/1999/xlink" x="0px" y="0px"
	 viewBox="0 0 1110 483" enable-background="new 0 0 1110 483" xml:space="preserve">
<g>
	<path d="M380.5,346.1c-9.1,0-17.9-1.9-26.2-5.5c-8.4-3.7-15.9-8.8-22.2-15.1c-6.4-6.3-11.5-13.7-15.3-22.1
		c-3.8-8.3-5.7-17.2-5.7-26.4V175.5c0-1.8,0.4-3.4,1.3-5.2c1-1.9,2.2-3.6,3.7-4.9c1.5-1.4,3.1-2.5,5-3.3c1.4-0.6,2.8-0.9,4.2-0.9
		c0.3,0,0.6,0,0.9,0c0.1,0,0.2,0,0.3,0c0.1,0,0.2,0,0.3,0c0.3,0,0.6,0,0.9,0c1.6,0,3.1,0.3,4.6,1c2,0.9,3.8,2.1,5.4,3.6
		c1.5,1.4,2.6,3,3.4,5c0.8,2,1.2,4.1,1.2,6.2v34.8c0,1.5,0.8,2.8,2,3.6c0.7,0.4,1.4,0.6,2.2,0.6c0.7,0,1.3-0.2,1.9-0.5
		c6.6-3.4,13.6-5.7,20.7-6.7c3.6-0.5,7.2-0.8,10.7-0.8c3.5,0,7.1,0.3,10.6,0.8c7,1,14,3.2,20.6,6.3c6.6,3.1,12.8,7.4,18.5,12.7
		c6.6,6.8,11.7,14.3,15,22.1c3.3,7.8,5,16.9,5,27c0,9.5-1.9,18.5-5.5,26.8c-3.7,8.4-8.8,15.8-15,22.1c-6.3,6.3-13.7,11.3-22,14.9
		C398.7,344.3,389.8,346.1,380.5,346.1z M380.5,238.9c-5.2,0-10.2,1.1-14.8,3.3c-4.5,2.1-8.5,4.9-11.9,8.4
		c-3.5,3.5-6.3,7.6-8.3,12.2c-2,4.7-3.1,9.5-3.1,14.3c0,5.2,1,10.2,3.1,14.9c2,4.6,4.8,8.7,8.3,12.1c3.5,3.4,7.5,6.1,11.9,8.1
		c4.6,2.1,9.5,3.1,14.7,3.1c5,0,9.9-1,14.6-3.1c4.6-2,8.7-4.7,12.1-8.1c3.5-3.4,6.3-7.5,8.3-12.1c2-4.7,3.1-9.7,3.1-14.9
		c0-5.2-1-10.2-3.1-14.9c-2-4.6-4.8-8.7-8.3-12.1c-3.5-3.4-7.6-6.1-12.1-8.1C390.4,239.9,385.5,238.9,380.5,238.9z"/>
	<path d="M489.7,346.4c-4.4,0-7.9-1.3-10.7-4.1c-2.9-2.8-4.4-6.5-4.8-11.2v-55.8c0.2-9,2.2-17.7,5.8-25.7
		c3.7-8.1,8.7-15.2,14.9-21.2c6.2-6,13.5-10.8,21.7-14.3c8.2-3.5,17.1-5.5,26.5-5.9c4.5,0,8.1,1.5,11,4.5c3,3.1,4.7,6.7,5,11.2
		c0,4.2-1.5,7.7-4.5,10.6c-3.1,3-6.8,4.5-11.4,4.7c-5.2,0-10.1,1-14.6,2.9c-4.5,1.9-8.5,4.6-11.9,8c-3.4,3.4-6.1,7.4-8.1,12
		c-2,4.7-3.1,9.8-3.1,15.2v55c-0.4,4.2-1.9,7.5-4.6,10.2C498.1,345.1,494.4,346.4,489.7,346.4z"/>
	<path d="M609.5,347c-4.2,0-7.6-1.3-10.4-3.8c-2.8-2.5-4.6-6.1-5.3-10.8V223.3c0.3-4.1,2-7.4,5-10.1c3.1-2.8,6.7-4.2,10.9-4.4
		c4,0,7.3,1.5,10,4.4c2.9,3.1,4.4,6.8,4.8,11.3v107.1c0,4.4-1.3,7.9-4,10.8C617.9,345.1,614.3,346.7,609.5,347z"/>
	<path d="M835.3,346.2c-8.1,0-16-1.7-23.5-5c-8.4-3.7-15.8-8.8-22.2-15.2c-6.4-6.4-11.5-13.9-15.2-22.5c-3.7-8.5-5.6-17.4-5.6-26.5
		c0-8.9,1.9-17.6,5.5-25.9c3.7-8.4,8.8-15.9,15.1-22.2c6.3-6.4,13.7-11.5,22.1-15.3c8.3-3.8,17.2-5.7,26.4-5.7
		c9,0,17.8,1.9,26.1,5.7c8.4,3.8,15.9,9,22.2,15.4c6.4,6.4,11.5,13.8,15.4,22.1c3.8,8.2,5.7,16.9,5.7,26c0,4-1.4,6.9-4.3,9.1
		c-3,2.3-6.6,3.4-11,3.4c-0.3,0-0.6,0-0.9,0c0,0-0.1,0-0.1,0h-80.6c-1.5,0-2.9,0.8-3.6,2.1c-0.7,1.3-0.7,2.9,0,4.2
		c7.4,12.8,17.9,19.4,31.2,19.4c3.6,0,6.7-0.3,9.3-1.1c2.5-0.7,4.7-1.5,6.6-2.4c1.6-0.8,3.2-1.4,4.8-2c1.2-0.4,2.7-0.7,4.4-0.7
		c3.4,0.2,6.3,1.1,8.7,2.9c2.5,1.8,4.4,4,5.6,6.6c1.2,2.6,1.6,5.4,1.2,8.5c-0.4,2.9-1.7,5.5-4,8.1c-4.9,3.9-10.4,6.7-16.3,8.2
		c-6.3,1.6-13.2,2.6-20.3,2.7c0,0,0,0-0.1,0C836.9,346.2,836.1,346.2,835.3,346.2z M837.9,238.9c-6.5,0-12.5,1.5-17.6,4.3
		c-5.2,2.9-9.8,7.9-13.6,14.8c-0.7,1.3-0.7,2.9,0.1,4.2c0.8,1.3,2.1,2.1,3.6,2.1h55.1c1.5,0,2.9-0.8,3.6-2.1
		c0.8-1.3,0.8-2.9,0.1-4.2c-3.8-6.9-8.5-11.9-13.8-14.8C850.1,240.3,844.3,238.9,837.9,238.9z"/>
	<g>
		<path fill="#00A0DE" d="M239,136c4.9,0,9.6,1,14,2.9c4.4,1.9,8.3,4.5,11.6,7.8s5.9,7.2,7.9,11.6c2,4.4,2.9,9.2,2.9,14.3
			c0,5-1,9.7-2.9,14c-1.9,4.4-4.5,8.2-7.7,11.5s-7.1,5.9-11.5,7.8c-4.4,1.9-9.2,2.9-14.3,2.9c-5,0-9.7-0.9-14.1-2.7
			c-4.4-1.8-8.3-4.3-11.6-7.6c-3.3-3.3-5.9-7.1-7.8-11.5c-1.9-4.4-2.9-9.2-2.9-14.4c0-5,0.9-9.7,2.8-14c1.9-4.4,4.4-8.2,7.7-11.4
			c3.3-3.3,7.1-5.9,11.6-7.8C229.1,137.3,233.9,136.2,239,136z M239,158.2c-2,0-3.8,0.4-5.5,1.1c-1.7,0.7-3.2,1.7-4.5,3
			c-1.3,1.3-2.4,2.8-3.1,4.5c-0.8,1.7-1.1,3.6-1.1,5.7c0,2,0.4,3.8,1.1,5.5c0.8,1.7,1.8,3.3,3.1,4.6c1.3,1.3,2.8,2.4,4.5,3.1
			c1.7,0.8,3.5,1.1,5.5,1.1s3.8-0.4,5.5-1.1c1.7-0.8,3.2-1.8,4.5-3.1c1.3-1.3,2.3-2.8,3.1-4.6c0.8-1.7,1.1-3.6,1.1-5.5
			c-0.2-3.9-1.6-7.2-4.2-9.9C246.4,159.8,243.1,158.4,239,158.2z"/>
	</g>
	<path d="M702.6,208.4c3.9,0,7.1,1.3,9.8,4c2.7,2.7,4,5.9,4,9.8c0,3.8-1.3,7-4,9.7c-2.7,2.7-5.9,4.1-9.8,4.1c-1.9,0-3.6,0.7-4.9,2
		c-1.3,1.3-2,3-2,4.9c0,1.9,0.7,3.6,2,4.9c1.3,1.3,3,2,4.9,2c13.3,0,24.7,4.7,34.2,14.2c9.4,9.4,14.1,20.8,14.1,34.2
		c0,13.3-4.7,24.7-14.1,34.2c-9.4,9.4-20.8,14.2-34.2,14.2c-13.3,0-24.7-4.7-34.2-14.2c-9.4-9.4-14.2-20.8-14.2-34.2
		c0-3.9,1.4-7.1,4.1-9.8c2.7-2.7,6-4,9.7-4c3.9,0,7.1,1.3,9.8,4c2.7,2.7,4,5.9,4,9.8c0,5.7,2,10.6,6.1,14.6c4,4.1,8.9,6.1,14.6,6.1
		c5.7,0,10.6-2,14.6-6.1c4-4,6.1-8.9,6.1-14.6c0-5.7-2-10.6-6.1-14.6c-4.1-4-8.9-6.1-14.6-6.1c-9.6,0-17.7-3.4-24.4-10.1
		c-6.7-6.8-10.1-14.9-10.1-24.4c0-9.6,3.4-17.7,10.1-24.4C684.9,211.7,693,208.4,702.6,208.4z"/>
</g>
</svg>
